Coordinates
version=1
nRows=27
nColumns=34
inDegrees=no

Units are S.I. units (second, meters, Newtons, ...)
If the header above contains a line with 'inDegrees', this indicates whether rotational values are in degrees (yes) or radians (no).

endheader
time	pelvis_tilt	pelvis_list	pelvis_rotation	pelvis_tx	pelvis_ty	pelvis_tz	hip_flexion_r	hip_adduction_r	hip_rotation_r	knee_angle_r	ankle_angle_r	subtalar_angle_r	mtp_angle_r	hip_flexion_l	hip_adduction_l	hip_rotation_l	knee_angle_l	ankle_angle_l	subtalar_angle_l	mtp_angle_l	lumbar_extension	lumbar_bending	lumbar_rotation	arm_flex_r	arm_add_r	arm_rot_r	elbow_flex_r	pro_sup_r	arm_flex_l	arm_add_l	arm_rot_l	elbow_flex_l	pro_sup_l
1.21	-0.189406	0.154262	0.0322499	-0.554478	1.20623	-0.573364	0.588634	-0.273165	-0.205987	0.201755	-0.543333	0.198021	0	0.662625	0.043086	-0.205147	0.476507	-0.3441	0.217543	0	-0.311765	-0.0466253	0.0159117	1.64936	-1.0386	1.29315	1.26355	1.69974	1.65376	-1.36518	1.18174	1.66403	2.02618
1.22	-0.189525	0.153868	0.0275454	-0.543171	1.18733	-0.573252	0.59744	-0.274459	-0.206956	0.198719	-0.546222	0.198011	0	0.653376	0.0419227	-0.216209	0.418894	-0.372938	0.239684	0	-0.317039	-0.0411656	-0.000389009	1.72681	-1.0215	1.37383	1.25281	1.68273	1.98298	-1.45879	1.50065	1.70409	2.01267
1.23	-0.190724	0.152533	0.0235505	-0.531644	1.16734	-0.573376	0.606925	-0.275886	-0.210714	0.197105	-0.547245	0.198046	0	0.647703	0.0408796	-0.221434	0.370006	-0.396116	0.250523	0	-0.321544	-0.0349686	-0.0195761	1.79798	-1.00203	1.44355	1.24609	1.66056	-3.04161	-1.50026	2.746	1.74705	1.99236
1.24	-0.192671	0.150477	0.0198488	-0.51991	1.14632	-0.573742	0.616728	-0.277359	-0.217711	0.196861	-0.547393	0.197375	0	0.645426	0.0396433	-0.220777	0.330526	-0.413087	0.248414	0	-0.324598	-0.0286216	-0.0382465	1.86076	-0.984551	1.50157	1.24426	1.64003	-2.23749	-1.42157	-2.74878	1.79007	1.96507
1.25	-0.194942	0.14772	0.0157705	-0.508108	1.1243	-0.574228	0.627258	-0.278133	-0.224401	0.198876	-0.550668	0.193857	0	0.646293	0.0373872	-0.214528	0.300484	-0.428071	0.233606	0	-0.326194	-0.0228307	-0.0540388	1.91334	-0.970872	1.54485	1.24505	1.62483	-2.03309	-1.32064	-2.56205	1.83291	1.93142
1.26	-0.198117	0.144101	0.0112845	-0.496233	1.10127	-0.574746	0.639755	-0.277659	-0.227894	0.203973	-0.561837	0.186265	0	0.650961	0.0332631	-0.206257	0.279769	-0.445456	0.209642	0	-0.32577	-0.0172735	-0.0665562	1.95678	-0.962018	1.57383	1.24919	1.61055	-1.94071	-1.22034	-2.48883	1.8772	1.89258
1.27	-0.20288	0.139529	0.00621899	-0.484322	1.07727	-0.57528	0.654363	-0.275162	-0.225642	0.212067	-0.576015	0.175718	0	0.660096	0.0267315	-0.200548	0.268385	-0.464855	0.181097	0	-0.322907	-0.0114992	-0.0729549	1.99797	-0.963433	1.59774	1.2635	1.59103	-1.88268	-1.12746	-2.45134	1.92336	1.85119
1.28	-0.208344	0.134924	0.000963785	-0.472445	1.05229	-0.575814	0.67109	-0.271805	-0.216423	0.225826	-0.58565	0.168198	0	0.672523	0.0190557	-0.196673	0.266776	-0.479028	0.152087	0	-0.318869	-0.00665702	-0.0722161	2.04237	-0.978532	1.62408	1.29108	1.56483	-1.84248	-1.04543	-2.43251	1.97067	1.80914
1.29	-0.213003	0.129898	-0.0046738	-0.460601	1.02639	-0.576239	0.688513	-0.266301	-0.198114	0.241892	-0.606526	0.16242	0	0.687021	0.00971237	-0.192651	0.275279	-0.486107	0.129434	0	-0.315706	-0.00241528	-0.0661253	2.0912	-1.00419	1.65375	1.32903	1.53535	-1.81049	-0.971413	-2.42162	2.0193	1.76529
1.3	-0.216515	0.122096	-0.0132827	-0.448888	0.999782	-0.576435	0.707452	-0.253949	-0.170185	0.262532	-0.631377	0.150769	0	0.704042	-0.00488233	-0.189668	0.291653	-0.503074	0.116178	0	-0.31475	0.00415398	-0.0535214	2.14772	-1.03647	1.68905	1.37526	1.50549	-1.77603	-0.902275	-2.40839	2.07093	1.72118
1.31	-0.221805	0.110665	-0.0275556	-0.437959	0.972859	-0.576409	0.73421	-0.232411	-0.1354	0.311455	-0.57063	0.13583	0	0.727412	-0.0262015	-0.185174	0.318567	-0.522153	0.108061	0	-0.314839	0.0141264	-0.0316809	2.21423	-1.07362	1.73052	1.42793	1.47317	-1.73229	-0.838019	-2.38821	2.12702	1.68379
1.32	-0.231518	0.102419	-0.0409448	-0.428036	0.945559	-0.576488	0.778681	-0.213504	-0.101081	0.419892	-0.342182	0.134231	0	0.763908	-0.0440223	-0.173507	0.378596	-0.461353	0.106467	0	-0.31255	0.0203551	-0.0102668	2.27652	-1.11587	1.76293	1.48436	1.43645	-1.68507	-0.776937	-2.36612	2.18607	1.65541
1.33	-0.24391	0.100023	-0.0470763	-0.418424	0.917425	-0.576788	0.836835	-0.204845	-0.0721833	0.564757	-0.044231	0.135853	0	0.819552	-0.0546403	-0.160958	0.49771	-0.253965	0.117777	0	-0.30643	0.0200586	0.000485434	2.31336	-1.16291	1.76677	1.54293	1.40016	-1.64066	-0.714999	-2.34435	2.24633	1.6293
1.34	-0.259482	0.0925786	-0.0559496	-0.409499	0.889015	-0.576591	0.90509	-0.186445	-0.0381518	0.701344	0.157381	0.0922379	0	0.892454	-0.076373	-0.153074	0.653507	0.00557521	0.11828	0	-0.297868	0.0237099	0.0111064	2.31534	-1.21121	1.73255	1.60222	1.37248	-1.58982	-0.649216	-2.31208	2.30988	1.60097
1.35	-0.285117	0.0801664	-0.073223	-0.402871	0.861557	-0.575787	0.99217	-0.154689	-0.00265847	0.821826	0.238158	0.00770941	0	0.980908	-0.110623	-0.140597	0.799761	0.172282	0.0728273	0	-0.284515	0.0313202	0.0277468	2.26687	-1.26104	1.64187	1.66261	1.35936	-1.52407	-0.578953	-2.2621	2.37785	1.57797
1.36	-0.322689	0.0673226	-0.092892	-0.398659	0.835859	-0.574814	1.0941	-0.118825	0.0283194	0.931405	0.249139	-0.0959647	0	1.08305	-0.148996	-0.120208	0.924401	0.235081	-0.00119914	0	-0.265078	0.0397138	0.0460025	2.13491	-1.31444	1.46325	1.72731	1.35317	-1.44468	-0.506305	-2.19161	2.4502	1.55759
1.37	-0.359074	0.05567	-0.105866	-0.394678	0.812701	-0.574124	1.18866	-0.0884865	0.0546345	1.03285	0.235605	-0.206593	0	1.18141	-0.180276	-0.0920925	1.03282	0.248101	-0.0862615	0	-0.2498	0.0478256	0.0595845	1.85722	-1.36726	1.14024	1.79856	1.35251	-1.3565	-0.437239	-2.09739	2.52373	1.54375
1.38	-0.378523	0.0476181	-0.109999	-0.389011	0.792927	-0.57361	1.25484	-0.0707748	0.0779566	1.12353	0.221876	-0.311122	0	1.25401	-0.197527	-0.0630762	1.12757	0.246306	-0.178493	0	-0.252619	0.0507573	0.0697316	1.3377	-1.39956	0.58066	1.8766	1.35656	-1.26086	-0.3811	-1.97436	2.59414	1.54145
1.39	-0.38138	0.0485528	-0.109059	-0.382059	0.776554	-0.572751	1.29369	-0.0660608	0.102326	1.19968	0.21628	-0.399585	0	1.29615	-0.202408	-0.0427907	1.20542	0.240856	-0.267061	0	-0.272505	0.0415568	0.082614	0.694914	-1.37155	-0.0966025	1.95928	1.36549	-1.15525	-0.346625	-1.81848	2.618	1.59469
1.4	-0.379883	0.0581924	-0.105257	-0.375411	0.762416	-0.571634	1.32116	-0.0702184	0.127798	1.26164	0.218856	-0.470063	0	1.32136	-0.200359	-0.0322591	1.26562	0.240449	-0.335907	0	-0.296012	0.0246637	0.0952294	0.315731	-1.28062	-0.503478	2.03697	1.38298	-1.04116	-0.326092	-1.62936	2.618	1.65903
1.41	-0.379088	0.065388	-0.0986441	-0.370557	0.749142	-0.571411	1.34474	-0.0775564	0.148702	1.31364	0.224622	-0.530598	0	1.34244	-0.196774	-0.0228325	1.31418	0.248035	-0.386888	0	-0.318043	0.0114003	0.0997771	0.174586	-1.16785	-0.661239	2.09537	1.40706	-0.927923	-0.302126	-1.43208	2.618	1.79252
1.42	-0.376262	0.0672502	-0.0907279	-0.366899	0.736321	-0.57169	1.36268	-0.0855641	0.165007	1.36075	0.237761	-0.581208	0	1.35992	-0.194921	-0.0113785	1.35729	0.261682	-0.428869	0	-0.341997	0.00705468	0.0930608	0.142082	-1.0561	-0.698881	2.13436	1.43401	-0.825768	-0.26717	-1.24425	2.618	1.86813
1.43	-0.37048	0.0673906	-0.0823815	-0.363833	0.724159	-0.572066	1.37489	-0.0938732	0.181904	1.405	0.265376	-0.610865	0	1.37308	-0.193319	0.000895529	1.39733	0.277038	-0.466123	0	-0.368139	0.00570513	0.0820445	0.13853	-0.947122	-0.698412	2.16187	1.45021	-0.733249	-0.231316	-1.06794	2.618	1.90102
1.44	-0.365757	0.0692061	-0.0743984	-0.360994	0.712764	-0.572451	1.38626	-0.102208	0.202012	1.44571	0.305565	-0.610865	0	1.38585	-0.190724	0.0129666	1.43459	0.28821	-0.500683	0	-0.390914	0.00510124	0.0731498	0.136382	-0.841033	-0.68919	2.18236	1.47026	-0.645004	-0.202004	-0.902854	2.56321	1.9287
1.45	-0.364856	0.0704648	-0.0684981	-0.35845	0.702171	-0.572774	1.39995	-0.107151	0.222142	1.48188	0.339504	-0.610865	0	1.4024	-0.19073	0.0256426	1.46993	0.292865	-0.533003	0	-0.408011	0.00612691	0.0666714	0.134699	-0.739742	-0.669686	2.19483	1.49239	-0.562582	-0.175893	-0.756228	2.48887	1.9299
1.46	-0.367421	0.0687342	-0.0661076	-0.356106	0.692109	-0.572737	1.41611	-0.107197	0.238652	1.51496	0.36608	-0.610865	0	1.42368	-0.197104	0.0403715	1.50522	0.291191	-0.564248	0	-0.419747	0.00926759	0.0622202	0.133801	-0.645328	-0.637071	2.19878	1.51758	-0.487852	-0.151563	-0.63719	2.41004	1.90783
1.47	-0.372232	0.0656539	-0.0667338	-0.353717	0.682229	-0.572062	1.43434	-0.103684	0.252532	1.54682	0.388243	-0.610865	0	1.44791	-0.208699	0.0569665	1.54083	0.284961	-0.595048	0	-0.426245	0.0126204	0.0594079	0.131933	-0.55715	-0.594868	2.19701	1.55051	-0.419797	-0.132489	-0.543695	2.33162	1.88325
